<svg xmlns="http://www.w3.org/2000/svg" xmlns:xlink="http://www.w3.org/1999/xlink" width="940" height="711.3"><rect width="940" height="711.3" rx="5" ry="5" class="a"/><svg y="0%" x="0%"><circle cx="20" cy="20" r="6" fill="#ff5f58"/><circle cx="40" cy="20" r="6" fill="#ffbd2e"/><circle cx="60" cy="20" r="6" fill="#18c132"/></svg><svg height="651.3" viewBox="0 0 90 65.13" width="900" x="15" xmlns="http://www.w3.org/2000/svg" xmlns:xlink="http://www.w3.org/1999/xlink" y="50"><style>@keyframes o{0%{transform:translateX(0)}4%{transform:translateX(-90px)}6.9%{transform:translateX(-180px)}7.2%{transform:translateX(-270px)}7.4%{transform:translateX(-360px)}7.7%{transform:translateX(-450px)}8%{transform:translateX(-540px)}8.2%{transform:translateX(-630px)}8.5%{transform:translateX(-720px)}8.8%{transform:translateX(-810px)}9%{transform:translateX(-900px)}9.3%{transform:translateX(-990px)}9.6%{transform:translateX(-1080px)}9.8%{transform:translateX(-1170px)}10.1%{transform:translateX(-1260px)}10.3%{transform:translateX(-1350px)}10.6%{transform:translateX(-1440px)}10.9%{transform:translateX(-1530px)}11.1%{transform:translateX(-1620px)}11.4%{transform:translateX(-1710px)}11.7%{transform:translateX(-1800px)}11.9%{transform:translateX(-1890px)}12.2%{transform:translateX(-1980px)}12.5%{transform:translateX(-2070px)}12.7%{transform:translateX(-2160px)}13%{transform:translateX(-2250px)}13.2%{transform:translateX(-2340px)}13.5%{transform:translateX(-2430px)}13.8%{transform:translateX(-2520px)}14%{transform:translateX(-2610px)}14.3%{transform:translateX(-2700px)}14.6%{transform:translateX(-2790px)}14.8%{transform:translateX(-2880px)}17.4%{transform:translateX(-2970px)}20.7%{transform:translateX(-3060px)}25.9%{transform:translateX(-3150px)}28.9%{transform:translateX(-3240px)}29.1%{transform:translateX(-3330px)}29.4%{transform:translateX(-3420px)}29.7%{transform:translateX(-3510px)}29.9%{transform:translateX(-3600px)}30.2%{transform:translateX(-3690px)}30.5%{transform:translateX(-3780px)}30.7%{transform:translateX(-3870px)}31%{transform:translateX(-3960px)}31.2%{transform:translateX(-4050px)}31.5%{transform:translateX(-4140px)}34.1%{transform:translateX(-4230px)}36.1%{transform:translateX(-4320px)}36.4%{transform:translateX(-4410px)}36.7%{transform:translateX(-4500px)}37%{transform:translateX(-4590px)}37.4%{transform:translateX(-4680px)}37.7%{transform:translateX(-4770px)}38%{transform:translateX(-4860px)}38.4%{transform:translateX(-4950px)}38.7%{transform:translateX(-5040px)}39%{transform:translateX(-5130px)}44.6%{transform:translateX(-5220px)}47.6%{transform:translateX(-5310px)}47.9%{transform:translateX(-5400px)}48.1%{transform:translateX(-5490px)}48.4%{transform:translateX(-5580px)}48.6%{transform:translateX(-5670px)}48.9%{transform:translateX(-5760px)}49.2%{transform:translateX(-5850px)}49.4%{transform:translateX(-5940px)}49.7%{transform:translateX(-6030px)}50%{transform:translateX(-6120px)}50.2%{transform:translateX(-6210px)}50.5%{transform:translateX(-6300px)}50.8%{transform:translateX(-6390px)}53.3%{transform:translateX(-6480px)}56%{transform:translateX(-6570px)}56.8%{transform:translateX(-6660px)}57.5%{transform:translateX(-6750px)}63%{transform:translateX(-6840px)}65.9%{transform:translateX(-6930px)}66.2%{transform:translateX(-7020px)}66.4%{transform:translateX(-7110px)}66.7%{transform:translateX(-7200px)}67%{transform:translateX(-7290px)}67.2%{transform:translateX(-7380px)}67.5%{transform:translateX(-7470px)}67.8%{transform:translateX(-7560px)}68%{transform:translateX(-7650px)}68.3%{transform:translateX(-7740px)}68.6%{transform:translateX(-7830px)}71.1%{transform:translateX(-7920px)}74.4%{transform:translateX(-8010px)}78%{transform:translateX(-8100px)}80.4%{transform:translateX(-8190px)}86.6%{transform:translateX(-8280px)}89.6%{transform:translateX(-8370px)}90.2%{transform:translateX(-8460px)}to{transform:translateX(-8550px)}}.a{fill:#282d35}.f{fill:#a8cc8c;white-space:pre}.g{fill:#b9c0cb}.g,.h,.i,.k,.l{white-space:pre}.h{fill:#b9c0cb;font-weight:700}.i,.k,.l{fill:#6f7783}.k,.l{fill:#66c2cd}.l{fill:#a8cc8c;font-weight:700}</style><g font-family="Monaco,Consolas,Menlo,'Bitstream Vera Sans Mono','Powerline Symbols',monospace" font-size="1.67"><defs><symbol id="1"><text y="1.67" class="f">❯</text></symbol><symbol id="2"><text y="1.67" class="f">❯</text><text x="2.004" y="1.67" class="g">deno</text></symbol><symbol id="3"><text y="1.67" class="f">❯</text><text x="2.004" y="1.67" class="g">deno</text><text x="7.014" y="1.67" class="g">run</text></symbol><symbol id="4"><text y="1.67" class="f">❯</text><text x="2.004" y="1.67" class="g">deno</text><text x="7.014" y="1.67" class="g">run</text><text x="11.022" y="1.67" class="g">-A</text></symbol><symbol id="5"><text y="1.67" class="f">❯</text><text x="2.004" y="1.67" class="g">deno</text><text x="7.014" y="1.67" class="g">run</text><text x="11.022" y="1.67" class="g">-A</text><text x="14.028" y="1.67" class="g">jsr:@zuke/cli</text></symbol><symbol id="6"><text y="1.67" class="f">❯</text><text x="2.004" y="1.67" class="g">deno</text><text x="7.014" y="1.67" class="g">run</text><text x="11.022" y="1.67" class="g">-A</text><text x="14.028" y="1.67" class="g">jsr:@zuke/cli</text><text x="28.056" y="1.67" class="g">setup</text></symbol><symbol id="7"><text y="1.67" class="f">✓</text><text x="2.004" y="1.67" class="g">Scaffolded</text><text x="13.026" y="1.67" class="h">zuke.ts</text><text x="20.04" y="1.67" class="g">,</text><text x="22.044" y="1.67" class="g">./zuke,</text><text x="30.06" y="1.67" class="g">./zuke.ps1,</text><text x="42.084" y="1.67" class="g">deno.json</text></symbol><symbol id="8"><text y="1.67" class="f">❯</text><text x="2.004" y="1.67" class="g">cat</text></symbol><symbol id="9"><text y="1.67" class="f">❯</text><text x="2.004" y="1.67" class="g">cat</text><text x="6.012" y="1.67" class="g">zuke.ts</text></symbol><symbol id="10"><text y="1.67" class="i">import</text><text x="7.014" y="1.67" class="g">{</text><text x="9.018" y="1.67" class="g">Build,</text><text x="16.032" y="1.67" class="g">target,</text><text x="24.048" y="1.67" class="g">run</text><text x="28.056" y="1.67" class="g">}</text><text x="30.06" y="1.67" class="i">from</text><text x="35.07" y="1.67" class="g">&quot;jsr:@zuke/core&quot;;</text></symbol><symbol id="11"><text y="1.67" class="i">import</text><text x="7.014" y="1.67" class="g">{</text><text x="9.018" y="1.67" class="g">DenoTasks</text><text x="19.038" y="1.67" class="g">}</text><text x="21.042" y="1.67" class="i">from</text><text x="26.052" y="1.67" class="g">&quot;jsr:@zuke/deno&quot;;</text></symbol><symbol id="12"><text y="1.67" class="i">class</text><text x="6.012" y="1.67" style="white-space:pre" fill="#dbab79">Pipeline</text><text x="15.03" y="1.67" class="i">extends</text><text x="23.046" y="1.67" class="g">Build</text><text x="29.058" y="1.67" class="g">{</text></symbol><symbol id="13"><text x="2.004" y="1.67" class="g">lint</text><text x="7.014" y="1.67" class="g">=</text><text x="9.018" y="1.67" class="g">target().executes(()</text><text x="30.06" y="1.67" class="g">=&gt;</text><text x="33.066" y="1.67" class="g">DenoTasks.lint());</text></symbol><symbol id="14"><text x="2.004" y="1.67" class="g">test</text><text x="7.014" y="1.67" class="g">=</text><text x="9.018" y="1.67" class="g">target().dependsOn(</text><text x="28.056" y="1.67" class="k">this.lint</text><text x="37.074" y="1.67" class="g">)</text><text x="48.096" y="1.67" class="i">//</text><text x="51.102" y="1.67" class="i">a</text><text x="53.106" y="1.67" class="i">reference,</text><text x="64.128" y="1.67" class="i">not</text><text x="68.136" y="1.67" class="i">&quot;lint&quot;</text></symbol><symbol id="15"><text x="4.008" y="1.67" class="g">.executes(()</text><text x="17.034" y="1.67" class="g">=&gt;</text><text x="20.04" y="1.67" class="g">DenoTasks.test((s)</text><text x="39.078" y="1.67" class="g">=&gt;</text><text x="42.084" y="1.67" class="g">s.allowAll()));</text></symbol><symbol id="16"><text y="1.67" class="g">}</text></symbol><symbol id="17"><text y="1.67" class="i">if</text><text x="3.006" y="1.67" class="g">(import.meta.main)</text><text x="22.044" y="1.67" class="i">await</text><text x="28.056" y="1.67" class="g">run(Pipeline);</text></symbol><symbol id="18"><text y="1.67" class="f">❯</text><text x="2.004" y="1.67" class="g">.</text></symbol><symbol id="19"><text y="1.67" class="f">❯</text><text x="2.004" y="1.67" class="g">./</text></symbol><symbol id="20"><text y="1.67" class="f">❯</text><text x="2.004" y="1.67" class="g">./z</text></symbol><symbol id="21"><text y="1.67" class="f">❯</text><text x="2.004" y="1.67" class="g">./zu</text></symbol><symbol id="22"><text y="1.67" class="f">❯</text><text x="2.004" y="1.67" class="g">./zuk</text></symbol><symbol id="23"><text y="1.67" class="f">❯</text><text x="2.004" y="1.67" class="g">./zuke</text></symbol><symbol id="24"><text y="1.67" class="f">❯</text><text x="2.004" y="1.67" class="g">./zuke</text><text x="9.018" y="1.67" class="g">--list</text></symbol><symbol id="25"><text y="1.67" class="h">Targets:</text></symbol><symbol id="26"><text x="2.004" y="1.67" class="g">lint</text><text x="9.018" y="1.67" class="g">Lint</text><text x="14.028" y="1.67" class="g">the</text><text x="18.036" y="1.67" class="g">workspace</text></symbol><symbol id="27"><text x="2.004" y="1.67" class="g">test</text><text x="9.018" y="1.67" class="g">Run</text><text x="13.026" y="1.67" class="g">the</text><text x="17.034" y="1.67" class="g">test</text><text x="22.044" y="1.67" class="g">suite</text><text x="29.058" y="1.67" class="i">(depends</text><text x="38.076" y="1.67" class="i">on:</text><text x="42.084" y="1.67" class="i">lint)</text></symbol><symbol id="28"><text y="1.67" class="f">❯</text><text x="2.004" y="1.67" class="g">./zuke</text><text x="9.018" y="1.67" class="g">test</text></symbol><symbol id="29"><text y="1.67" class="k">▶</text><text x="2.004" y="1.67" class="g">lint</text></symbol><symbol id="30"><text y="1.67" class="f">✔</text><text x="2.004" y="1.67" class="g">lint</text><text x="9.018" y="1.67" class="i">(0.1s)</text></symbol><symbol id="31"><text y="1.67" class="k">▶</text><text x="2.004" y="1.67" class="g">test</text></symbol><symbol id="32"><text y="1.67" class="f">✔</text><text x="2.004" y="1.67" class="g">test</text><text x="9.018" y="1.67" class="i">(0.8s)</text></symbol><symbol id="33"><text y="1.67" class="l">✔</text><text x="2.004" y="1.67" class="l">SUCCESS</text><text x="10.02" y="1.67" class="g">—</text><text x="12.024" y="1.67" class="g">2/2</text><text x="16.032" y="1.67" class="g">targets</text><text x="24.048" y="1.67" class="g">in</text><text x="27.054" y="1.67" class="g">0.9s</text></symbol><symbol id="a"><path fill="transparent" d="M0 0h90v31H0z"/></symbol><symbol id="b"><path fill="#6f7683" d="M0 0h1.102v2.171H0z"/></symbol></defs><path class="a" d="M0 0h90v65.13H0z"/><g style="animation-duration:15.17s;animation-iteration-count:infinite;animation-name:o;animation-timing-function:steps(1,end)"><svg width="8640"><svg><use xlink:href="#a"/><use xlink:href="#b" x="-.004"/></svg><svg x="90"><use xlink:href="#a"/><use xlink:href="#b" x="1.996"/><use xlink:href="#1"/></svg><svg x="180"><use xlink:href="#a"/><use xlink:href="#b" x="2.996"/><text y="1.67" class="f">❯</text><text x="2.004" y="1.67" class="g">d</text></svg><svg x="270"><use xlink:href="#a"/><use xlink:href="#b" x="3.996"/><text y="1.67" class="f">❯</text><text x="2.004" y="1.67" class="g">de</text></svg><svg x="360"><use xlink:href="#a"/><use xlink:href="#b" x="4.996"/><text y="1.67" class="f">❯</text><text x="2.004" y="1.67" class="g">den</text></svg><svg x="450"><use xlink:href="#a"/><use xlink:href="#b" x="5.996"/><use xlink:href="#2"/></svg><svg x="540"><use xlink:href="#a"/><use xlink:href="#b" x="6.996"/><use xlink:href="#2"/></svg><svg x="630"><use xlink:href="#a"/><use xlink:href="#b" x="7.996"/><text y="1.67" class="f">❯</text><text x="2.004" y="1.67" class="g">deno</text><text x="7.014" y="1.67" class="g">r</text></svg><svg x="720"><use xlink:href="#a"/><use xlink:href="#b" x="8.996"/><text y="1.67" class="f">❯</text><text x="2.004" y="1.67" class="g">deno</text><text x="7.014" y="1.67" class="g">ru</text></svg><svg x="810"><use xlink:href="#a"/><use xlink:href="#b" x="9.996"/><use xlink:href="#3"/></svg><svg x="900"><use xlink:href="#a"/><use xlink:href="#b" x="10.996"/><use xlink:href="#3"/></svg><svg x="990"><use xlink:href="#a"/><use xlink:href="#b" x="11.996"/><text y="1.67" class="f">❯</text><text x="2.004" y="1.67" class="g">deno</text><text x="7.014" y="1.67" class="g">run</text><text x="11.022" y="1.67" class="g">-</text></svg><svg x="1080"><use xlink:href="#a"/><use xlink:href="#b" x="12.996"/><use xlink:href="#4"/></svg><svg x="1170"><use xlink:href="#a"/><use xlink:href="#b" x="13.996"/><use xlink:href="#4"/></svg><svg x="1260"><use xlink:href="#a"/><use xlink:href="#b" x="14.996"/><text y="1.67" class="f">❯</text><text x="2.004" y="1.67" class="g">deno</text><text x="7.014" y="1.67" class="g">run</text><text x="11.022" y="1.67" class="g">-A</text><text x="14.028" y="1.67" class="g">j</text></svg><svg x="1350"><use xlink:href="#a"/><use xlink:href="#b" x="15.996"/><text y="1.67" class="f">❯</text><text x="2.004" y="1.67" class="g">deno</text><text x="7.014" y="1.67" class="g">run</text><text x="11.022" y="1.67" class="g">-A</text><text x="14.028" y="1.67" class="g">js</text></svg><svg x="1440"><use xlink:href="#a"/><use xlink:href="#b" x="16.996"/><text y="1.67" class="f">❯</text><text x="2.004" y="1.67" class="g">deno</text><text x="7.014" y="1.67" class="g">run</text><text x="11.022" y="1.67" class="g">-A</text><text x="14.028" y="1.67" class="g">jsr</text></svg><svg x="1530"><use xlink:href="#a"/><use xlink:href="#b" x="17.996"/><text y="1.67" class="f">❯</text><text x="2.004" y="1.67" class="g">deno</text><text x="7.014" y="1.67" class="g">run</text><text x="11.022" y="1.67" class="g">-A</text><text x="14.028" y="1.67" class="g">jsr:</text></svg><svg x="1620"><use xlink:href="#a"/><use xlink:href="#b" x="18.996"/><text y="1.67" class="f">❯</text><text x="2.004" y="1.67" class="g">deno</text><text x="7.014" y="1.67" class="g">run</text><text x="11.022" y="1.67" class="g">-A</text><text x="14.028" y="1.67" class="g">jsr:@</text></svg><svg x="1710"><use xlink:href="#a"/><use xlink:href="#b" x="19.996"/><text y="1.67" class="f">❯</text><text x="2.004" y="1.67" class="g">deno</text><text x="7.014" y="1.67" class="g">run</text><text x="11.022" y="1.67" class="g">-A</text><text x="14.028" y="1.67" class="g">jsr:@z</text></svg><svg x="1800"><use xlink:href="#a"/><use xlink:href="#b" x="20.996"/><text y="1.67" class="f">❯</text><text x="2.004" y="1.67" class="g">deno</text><text x="7.014" y="1.67" class="g">run</text><text x="11.022" y="1.67" class="g">-A</text><text x="14.028" y="1.67" class="g">jsr:@zu</text></svg><svg x="1890"><use xlink:href="#a"/><use xlink:href="#b" x="21.996"/><text y="1.67" class="f">❯</text><text x="2.004" y="1.67" class="g">deno</text><text x="7.014" y="1.67" class="g">run</text><text x="11.022" y="1.67" class="g">-A</text><text x="14.028" y="1.67" class="g">jsr:@zuk</text></svg><svg x="1980"><use xlink:href="#a"/><use xlink:href="#b" x="22.996"/><text y="1.67" class="f">❯</text><text x="2.004" y="1.67" class="g">deno</text><text x="7.014" y="1.67" class="g">run</text><text x="11.022" y="1.67" class="g">-A</text><text x="14.028" y="1.67" class="g">jsr:@zuke</text></svg><svg x="2070"><use xlink:href="#a"/><use xlink:href="#b" x="23.996"/><text y="1.67" class="f">❯</text><text x="2.004" y="1.67" class="g">deno</text><text x="7.014" y="1.67" class="g">run</text><text x="11.022" y="1.67" class="g">-A</text><text x="14.028" y="1.67" class="g">jsr:@zuke/</text></svg><svg x="2160"><use xlink:href="#a"/><use xlink:href="#b" x="24.996"/><text y="1.67" class="f">❯</text><text x="2.004" y="1.67" class="g">deno</text><text x="7.014" y="1.67" class="g">run</text><text x="11.022" y="1.67" class="g">-A</text><text x="14.028" y="1.67" class="g">jsr:@zuke/c</text></svg><svg x="2250"><use xlink:href="#a"/><use xlink:href="#b" x="25.996"/><text y="1.67" class="f">❯</text><text x="2.004" y="1.67" class="g">deno</text><text x="7.014" y="1.67" class="g">run</text><text x="11.022" y="1.67" class="g">-A</text><text x="14.028" y="1.67" class="g">jsr:@zuke/cl</text></svg><svg x="2340"><use xlink:href="#a"/><use xlink:href="#b" x="26.996"/><use xlink:href="#5"/></svg><svg x="2430"><use xlink:href="#a"/><use xlink:href="#b" x="27.996"/><use xlink:href="#5"/></svg><svg x="2520"><use xlink:href="#a"/><use xlink:href="#b" x="28.996"/><text y="1.67" class="f">❯</text><text x="2.004" y="1.67" class="g">deno</text><text x="7.014" y="1.67" class="g">run</text><text x="11.022" y="1.67" class="g">-A</text><text x="14.028" y="1.67" class="g">jsr:@zuke/cli</text><text x="28.056" y="1.67" class="g">s</text></svg><svg x="2610"><use xlink:href="#a"/><use xlink:href="#b" x="29.996"/><text y="1.67" class="f">❯</text><text x="2.004" y="1.67" class="g">deno</text><text x="7.014" y="1.67" class="g">run</text><text x="11.022" y="1.67" class="g">-A</text><text x="14.028" y="1.67" class="g">jsr:@zuke/cli</text><text x="28.056" y="1.67" class="g">se</text></svg><svg x="2700"><use xlink:href="#a"/><use xlink:href="#b" x="30.996"/><text y="1.67" class="f">❯</text><text x="2.004" y="1.67" class="g">deno</text><text x="7.014" y="1.67" class="g">run</text><text x="11.022" y="1.67" class="g">-A</text><text x="14.028" y="1.67" class="g">jsr:@zuke/cli</text><text x="28.056" y="1.67" class="g">set</text></svg><svg x="2790"><use xlink:href="#a"/><use xlink:href="#b" x="31.996"/><text y="1.67" class="f">❯</text><text x="2.004" y="1.67" class="g">deno</text><text x="7.014" y="1.67" class="g">run</text><text x="11.022" y="1.67" class="g">-A</text><text x="14.028" y="1.67" class="g">jsr:@zuke/cli</text><text x="28.056" y="1.67" class="g">setu</text></svg><svg x="2880"><use xlink:href="#a"/><use xlink:href="#b" x="32.996"/><use xlink:href="#6"/></svg><svg x="2970"><use xlink:href="#a"/><use xlink:href="#b" x="-.004" y="2.146"/><use xlink:href="#6"/></svg><svg x="3060"><use xlink:href="#a"/><use xlink:href="#b" x="-.004" y="4.317"/><use xlink:href="#6"/><use xlink:href="#7" y="2.171"/></svg><svg x="3150"><use xlink:href="#a"/><use xlink:href="#b" x="1.996" y="4.317"/><use xlink:href="#6"/><use xlink:href="#7" y="2.171"/><use xlink:href="#1" y="4.342"/></svg><svg x="3240"><use xlink:href="#a"/><use xlink:href="#b" x="2.996" y="4.317"/><use xlink:href="#6"/><use xlink:href="#7" y="2.171"/><text y="6.012" class="f">❯</text><text x="2.004" y="6.012" class="g">c</text></svg><svg x="3330"><use xlink:href="#a"/><use xlink:href="#b" x="3.996" y="4.317"/><use xlink:href="#6"/><use xlink:href="#7" y="2.171"/><text y="6.012" class="f">❯</text><text x="2.004" y="6.012" class="g">ca</text></svg><svg x="3420"><use xlink:href="#a"/><use xlink:href="#b" x="4.996" y="4.317"/><use xlink:href="#6"/><use xlink:href="#7" y="2.171"/><use xlink:href="#8" y="4.342"/></svg><svg x="3510"><use xlink:href="#a"/><use xlink:href="#b" x="5.996" y="4.317"/><use xlink:href="#6"/><use xlink:href="#7" y="2.171"/><use xlink:href="#8" y="4.342"/></svg><svg x="3600"><use xlink:href="#a"/><use xlink:href="#b" x="6.996" y="4.317"/><use xlink:href="#6"/><use xlink:href="#7" y="2.171"/><text y="6.012" class="f">❯</text><text x="2.004" y="6.012" class="g">cat</text><text x="6.012" y="6.012" class="g">z</text></svg><svg x="3690"><use xlink:href="#a"/><use xlink:href="#b" x="7.996" y="4.317"/><use xlink:href="#6"/><use xlink:href="#7" y="2.171"/><text y="6.012" class="f">❯</text><text x="2.004" y="6.012" class="g">cat</text><text x="6.012" y="6.012" class="g">zu</text></svg><svg x="3780"><use xlink:href="#a"/><use xlink:href="#b" x="8.996" y="4.317"/><use xlink:href="#6"/><use xlink:href="#7" y="2.171"/><text y="6.012" class="f">❯</text><text x="2.004" y="6.012" class="g">cat</text><text x="6.012" y="6.012" class="g">zuk</text></svg><svg x="3870"><use xlink:href="#a"/><use xlink:href="#b" x="9.996" y="4.317"/><use xlink:href="#6"/><use xlink:href="#7" y="2.171"/><text y="6.012" class="f">❯</text><text x="2.004" y="6.012" class="g">cat</text><text x="6.012" y="6.012" class="g">zuke</text></svg><svg x="3960"><use xlink:href="#a"/><use xlink:href="#b" x="10.996" y="4.317"/><use xlink:href="#6"/><use xlink:href="#7" y="2.171"/><text y="6.012" class="f">❯</text><text x="2.004" y="6.012" class="g">cat</text><text x="6.012" y="6.012" class="g">zuke.</text></svg><svg x="4050"><use xlink:href="#a"/><use xlink:href="#b" x="11.996" y="4.317"/><use xlink:href="#6"/><use xlink:href="#7" y="2.171"/><text y="6.012" class="f">❯</text><text x="2.004" y="6.012" class="g">cat</text><text x="6.012" y="6.012" class="g">zuke.t</text></svg><svg x="4140"><use xlink:href="#a"/><use xlink:href="#b" x="12.996" y="4.317"/><use xlink:href="#6"/><use xlink:href="#7" y="2.171"/><use xlink:href="#9" y="4.342"/></svg><svg x="4230"><use xlink:href="#a"/><use xlink:href="#b" x="-.004" y="6.488"/><use xlink:href="#6"/><use xlink:href="#7" y="2.171"/><use xlink:href="#9" y="4.342"/></svg><svg x="4320"><use xlink:href="#a"/><use xlink:href="#b" x="-.004" y="8.659"/><use xlink:href="#6"/><use xlink:href="#7" y="2.171"/><use xlink:href="#9" y="4.342"/><use xlink:href="#10" y="6.513"/></svg><svg x="4410"><use xlink:href="#a"/><use xlink:href="#b" x="-.004" y="10.83"/><use xlink:href="#6"/><use xlink:href="#7" y="2.171"/><use xlink:href="#9" y="4.342"/><use xlink:href="#10" y="6.513"/><use xlink:href="#11" y="8.684"/></svg><svg x="4500"><use xlink:href="#a"/><use xlink:href="#b" x="-.004" y="13.001"/><use xlink:href="#6"/><use xlink:href="#7" y="2.171"/><use xlink:href="#9" y="4.342"/><use xlink:href="#10" y="6.513"/><use xlink:href="#11" y="8.684"/></svg><svg x="4590"><use xlink:href="#a"/><use xlink:href="#b" x="-.004" y="15.172"/><use xlink:href="#6"/><use xlink:href="#7" y="2.171"/><use xlink:href="#9" y="4.342"/><use xlink:href="#10" y="6.513"/><use xlink:href="#11" y="8.684"/><use xlink:href="#12" y="13.026"/></svg><svg x="4680"><use xlink:href="#a"/><use xlink:href="#b" x="-.004" y="17.343"/><use xlink:href="#6"/><use xlink:href="#7" y="2.171"/><use xlink:href="#9" y="4.342"/><use xlink:href="#10" y="6.513"/><use xlink:href="#11" y="8.684"/><use xlink:href="#12" y="13.026"/><use xlink:href="#13" y="15.197"/></svg><svg x="4770"><use xlink:href="#a"/><use xlink:href="#b" x="-.004" y="19.514"/><use xlink:href="#6"/><use xlink:href="#7" y="2.171"/><use xlink:href="#9" y="4.342"/><use xlink:href="#10" y="6.513"/><use xlink:href="#11" y="8.684"/><use xlink:href="#12" y="13.026"/><use xlink:href="#13" y="15.197"/><use xlink:href="#14" y="17.368"/></svg><svg x="4860"><use xlink:href="#a"/><use xlink:href="#b" x="-.004" y="21.685"/><use xlink:href="#6"/><use xlink:href="#7" y="2.171"/><use xlink:href="#9" y="4.342"/><use xlink:href="#10" y="6.513"/><use xlink:href="#11" y="8.684"/><use xlink:href="#12" y="13.026"/><use xlink:href="#13" y="15.197"/><use xlink:href="#14" y="17.368"/><use xlink:href="#15" y="19.539"/></svg><svg x="4950"><use xlink:href="#a"/><use xlink:href="#b" x="-.004" y="23.856"/><use xlink:href="#6"/><use xlink:href="#7" y="2.171"/><use xlink:href="#9" y="4.342"/><use xlink:href="#10" y="6.513"/><use xlink:href="#11" y="8.684"/><use xlink:href="#12" y="13.026"/><use xlink:href="#13" y="15.197"/><use xlink:href="#14" y="17.368"/><use xlink:href="#15" y="19.539"/><use xlink:href="#16" y="21.71"/></svg><svg x="5040"><use xlink:href="#a"/><use xlink:href="#b" x="-.004" y="26.027"/><use xlink:href="#6"/><use xlink:href="#7" y="2.171"/><use xlink:href="#9" y="4.342"/><use xlink:href="#10" y="6.513"/><use xlink:href="#11" y="8.684"/><use xlink:href="#12" y="13.026"/><use xlink:href="#13" y="15.197"/><use xlink:href="#14" y="17.368"/><use xlink:href="#15" y="19.539"/><use xlink:href="#16" y="21.71"/></svg><svg x="5130"><use xlink:href="#a"/><use xlink:href="#b" x="-.004" y="28.198"/><use xlink:href="#6"/><use xlink:href="#7" y="2.171"/><use xlink:href="#9" y="4.342"/><use xlink:href="#10" y="6.513"/><use xlink:href="#11" y="8.684"/><use xlink:href="#12" y="13.026"/><use xlink:href="#13" y="15.197"/><use xlink:href="#14" y="17.368"/><use xlink:href="#15" y="19.539"/><use xlink:href="#16" y="21.71"/><use xlink:href="#17" y="26.052"/></svg><svg x="5220"><use xlink:href="#a"/><use xlink:href="#b" x="1.996" y="28.198"/><use xlink:href="#6"/><use xlink:href="#7" y="2.171"/><use xlink:href="#9" y="4.342"/><use xlink:href="#10" y="6.513"/><use xlink:href="#11" y="8.684"/><use xlink:href="#12" y="13.026"/><use xlink:href="#13" y="15.197"/><use xlink:href="#14" y="17.368"/><use xlink:href="#15" y="19.539"/><use xlink:href="#16" y="21.71"/><use xlink:href="#17" y="26.052"/><use xlink:href="#1" y="28.223"/></svg><svg x="5310"><use xlink:href="#a"/><use xlink:href="#b" x="2.996" y="28.198"/><use xlink:href="#6"/><use xlink:href="#7" y="2.171"/><use xlink:href="#9" y="4.342"/><use xlink:href="#10" y="6.513"/><use xlink:href="#11" y="8.684"/><use xlink:href="#12" y="13.026"/><use xlink:href="#13" y="15.197"/><use xlink:href="#14" y="17.368"/><use xlink:href="#15" y="19.539"/><use xlink:href="#16" y="21.71"/><use xlink:href="#17" y="26.052"/><use xlink:href="#18" y="28.223"/></svg><svg x="5400"><use xlink:href="#a"/><use xlink:href="#b" x="3.996" y="28.198"/><use xlink:href="#6"/><use xlink:href="#7" y="2.171"/><use xlink:href="#9" y="4.342"/><use xlink:href="#10" y="6.513"/><use xlink:href="#11" y="8.684"/><use xlink:href="#12" y="13.026"/><use xlink:href="#13" y="15.197"/><use xlink:href="#14" y="17.368"/><use xlink:href="#15" y="19.539"/><use xlink:href="#16" y="21.71"/><use xlink:href="#17" y="26.052"/><use xlink:href="#19" y="28.223"/></svg><svg x="5490"><use xlink:href="#a"/><use xlink:href="#b" x="4.996" y="28.198"/><use xlink:href="#6"/><use xlink:href="#7" y="2.171"/><use xlink:href="#9" y="4.342"/><use xlink:href="#10" y="6.513"/><use xlink:href="#11" y="8.684"/><use xlink:href="#12" y="13.026"/><use xlink:href="#13" y="15.197"/><use xlink:href="#14" y="17.368"/><use xlink:href="#15" y="19.539"/><use xlink:href="#16" y="21.71"/><use xlink:href="#17" y="26.052"/><use xlink:href="#20" y="28.223"/></svg><svg x="5580"><use xlink:href="#a"/><use xlink:href="#b" x="5.996" y="28.198"/><use xlink:href="#6"/><use xlink:href="#7" y="2.171"/><use xlink:href="#9" y="4.342"/><use xlink:href="#10" y="6.513"/><use xlink:href="#11" y="8.684"/><use xlink:href="#12" y="13.026"/><use xlink:href="#13" y="15.197"/><use xlink:href="#14" y="17.368"/><use xlink:href="#15" y="19.539"/><use xlink:href="#16" y="21.71"/><use xlink:href="#17" y="26.052"/><use xlink:href="#21" y="28.223"/></svg><svg x="5670"><use xlink:href="#a"/><use xlink:href="#b" x="6.996" y="28.198"/><use xlink:href="#6"/><use xlink:href="#7" y="2.171"/><use xlink:href="#9" y="4.342"/><use xlink:href="#10" y="6.513"/><use xlink:href="#11" y="8.684"/><use xlink:href="#12" y="13.026"/><use xlink:href="#13" y="15.197"/><use xlink:href="#14" y="17.368"/><use xlink:href="#15" y="19.539"/><use xlink:href="#16" y="21.71"/><use xlink:href="#17" y="26.052"/><use xlink:href="#22" y="28.223"/></svg><svg x="5760"><use xlink:href="#a"/><use xlink:href="#b" x="7.996" y="28.198"/><use xlink:href="#6"/><use xlink:href="#7" y="2.171"/><use xlink:href="#9" y="4.342"/><use xlink:href="#10" y="6.513"/><use xlink:href="#11" y="8.684"/><use xlink:href="#12" y="13.026"/><use xlink:href="#13" y="15.197"/><use xlink:href="#14" y="17.368"/><use xlink:href="#15" y="19.539"/><use xlink:href="#16" y="21.71"/><use xlink:href="#17" y="26.052"/><use xlink:href="#23" y="28.223"/></svg><svg x="5850"><use xlink:href="#a"/><use xlink:href="#b" x="8.996" y="28.198"/><use xlink:href="#6"/><use xlink:href="#7" y="2.171"/><use xlink:href="#9" y="4.342"/><use xlink:href="#10" y="6.513"/><use xlink:href="#11" y="8.684"/><use xlink:href="#12" y="13.026"/><use xlink:href="#13" y="15.197"/><use xlink:href="#14" y="17.368"/><use xlink:href="#15" y="19.539"/><use xlink:href="#16" y="21.71"/><use xlink:href="#17" y="26.052"/><use xlink:href="#23" y="28.223"/></svg><svg x="5940"><use xlink:href="#a"/><use xlink:href="#b" x="9.996" y="28.198"/><use xlink:href="#6"/><use xlink:href="#7" y="2.171"/><use xlink:href="#9" y="4.342"/><use xlink:href="#10" y="6.513"/><use xlink:href="#11" y="8.684"/><use xlink:href="#12" y="13.026"/><use xlink:href="#13" y="15.197"/><use xlink:href="#14" y="17.368"/><use xlink:href="#15" y="19.539"/><use xlink:href="#16" y="21.71"/><use xlink:href="#17" y="26.052"/><text y="29.893" class="f">❯</text><text x="2.004" y="29.893" class="g">./zuke</text><text x="9.018" y="29.893" class="g">-</text></svg><svg x="6030"><use xlink:href="#a"/><use xlink:href="#b" x="10.996" y="28.198"/><use xlink:href="#6"/><use xlink:href="#7" y="2.171"/><use xlink:href="#9" y="4.342"/><use xlink:href="#10" y="6.513"/><use xlink:href="#11" y="8.684"/><use xlink:href="#12" y="13.026"/><use xlink:href="#13" y="15.197"/><use xlink:href="#14" y="17.368"/><use xlink:href="#15" y="19.539"/><use xlink:href="#16" y="21.71"/><use xlink:href="#17" y="26.052"/><text y="29.893" class="f">❯</text><text x="2.004" y="29.893" class="g">./zuke</text><text x="9.018" y="29.893" class="g">--</text></svg><svg x="6120"><use xlink:href="#a"/><use xlink:href="#b" x="11.996" y="28.198"/><use xlink:href="#6"/><use xlink:href="#7" y="2.171"/><use xlink:href="#9" y="4.342"/><use xlink:href="#10" y="6.513"/><use xlink:href="#11" y="8.684"/><use xlink:href="#12" y="13.026"/><use xlink:href="#13" y="15.197"/><use xlink:href="#14" y="17.368"/><use xlink:href="#15" y="19.539"/><use xlink:href="#16" y="21.71"/><use xlink:href="#17" y="26.052"/><text y="29.893" class="f">❯</text><text x="2.004" y="29.893" class="g">./zuke</text><text x="9.018" y="29.893" class="g">--l</text></svg><svg x="6210"><use xlink:href="#a"/><use xlink:href="#b" x="12.996" y="28.198"/><use xlink:href="#6"/><use xlink:href="#7" y="2.171"/><use xlink:href="#9" y="4.342"/><use xlink:href="#10" y="6.513"/><use xlink:href="#11" y="8.684"/><use xlink:href="#12" y="13.026"/><use xlink:href="#13" y="15.197"/><use xlink:href="#14" y="17.368"/><use xlink:href="#15" y="19.539"/><use xlink:href="#16" y="21.71"/><use xlink:href="#17" y="26.052"/><text y="29.893" class="f">❯</text><text x="2.004" y="29.893" class="g">./zuke</text><text x="9.018" y="29.893" class="g">--li</text></svg><svg x="6300"><use xlink:href="#a"/><use xlink:href="#b" x="13.996" y="28.198"/><use xlink:href="#6"/><use xlink:href="#7" y="2.171"/><use xlink:href="#9" y="4.342"/><use xlink:href="#10" y="6.513"/><use xlink:href="#11" y="8.684"/><use xlink:href="#12" y="13.026"/><use xlink:href="#13" y="15.197"/><use xlink:href="#14" y="17.368"/><use xlink:href="#15" y="19.539"/><use xlink:href="#16" y="21.71"/><use xlink:href="#17" y="26.052"/><text y="29.893" class="f">❯</text><text x="2.004" y="29.893" class="g">./zuke</text><text x="9.018" y="29.893" class="g">--lis</text></svg><svg x="6390"><use xlink:href="#a"/><use xlink:href="#b" x="14.996" y="28.198"/><use xlink:href="#6"/><use xlink:href="#7" y="2.171"/><use xlink:href="#9" y="4.342"/><use xlink:href="#10" y="6.513"/><use xlink:href="#11" y="8.684"/><use xlink:href="#12" y="13.026"/><use xlink:href="#13" y="15.197"/><use xlink:href="#14" y="17.368"/><use xlink:href="#15" y="19.539"/><use xlink:href="#16" y="21.71"/><use xlink:href="#17" y="26.052"/><use xlink:href="#24" y="28.223"/></svg><svg x="6480"><use xlink:href="#a"/><use xlink:href="#b" x="-.004" y="30.369"/><use xlink:href="#6"/><use xlink:href="#7" y="2.171"/><use xlink:href="#9" y="4.342"/><use xlink:href="#10" y="6.513"/><use xlink:href="#11" y="8.684"/><use xlink:href="#12" y="13.026"/><use xlink:href="#13" y="15.197"/><use xlink:href="#14" y="17.368"/><use xlink:href="#15" y="19.539"/><use xlink:href="#16" y="21.71"/><use xlink:href="#17" y="26.052"/><use xlink:href="#24" y="28.223"/></svg><svg x="6570"><use xlink:href="#a"/><use xlink:href="#b" x="-.004" y="32.54"/><use xlink:href="#6"/><use xlink:href="#7" y="2.171"/><use xlink:href="#9" y="4.342"/><use xlink:href="#10" y="6.513"/><use xlink:href="#11" y="8.684"/><use xlink:href="#12" y="13.026"/><use xlink:href="#13" y="15.197"/><use xlink:href="#14" y="17.368"/><use xlink:href="#15" y="19.539"/><use xlink:href="#16" y="21.71"/><use xlink:href="#17" y="26.052"/><use xlink:href="#24" y="28.223"/><use xlink:href="#25" y="30.394"/></svg><svg x="6660"><use xlink:href="#a"/><use xlink:href="#b" x="-.004" y="34.711"/><use xlink:href="#6"/><use xlink:href="#7" y="2.171"/><use xlink:href="#9" y="4.342"/><use xlink:href="#10" y="6.513"/><use xlink:href="#11" y="8.684"/><use xlink:href="#12" y="13.026"/><use xlink:href="#13" y="15.197"/><use xlink:href="#14" y="17.368"/><use xlink:href="#15" y="19.539"/><use xlink:href="#16" y="21.71"/><use xlink:href="#17" y="26.052"/><use xlink:href="#24" y="28.223"/><use xlink:href="#25" y="30.394"/><use xlink:href="#26" y="32.565"/></svg><svg x="6750"><use xlink:href="#a"/><use xlink:href="#b" x="-.004" y="36.882"/><use xlink:href="#6"/><use xlink:href="#7" y="2.171"/><use xlink:href="#9" y="4.342"/><use xlink:href="#10" y="6.513"/><use xlink:href="#11" y="8.684"/><use xlink:href="#12" y="13.026"/><use xlink:href="#13" y="15.197"/><use xlink:href="#14" y="17.368"/><use xlink:href="#15" y="19.539"/><use xlink:href="#16" y="21.71"/><use xlink:href="#17" y="26.052"/><use xlink:href="#24" y="28.223"/><use xlink:href="#25" y="30.394"/><use xlink:href="#26" y="32.565"/><use xlink:href="#27" y="34.736"/></svg><svg x="6840"><use xlink:href="#a"/><use xlink:href="#b" x="1.996" y="36.882"/><use xlink:href="#6"/><use xlink:href="#7" y="2.171"/><use xlink:href="#9" y="4.342"/><use xlink:href="#10" y="6.513"/><use xlink:href="#11" y="8.684"/><use xlink:href="#12" y="13.026"/><use xlink:href="#13" y="15.197"/><use xlink:href="#14" y="17.368"/><use xlink:href="#15" y="19.539"/><use xlink:href="#16" y="21.71"/><use xlink:href="#17" y="26.052"/><use xlink:href="#24" y="28.223"/><use xlink:href="#25" y="30.394"/><use xlink:href="#26" y="32.565"/><use xlink:href="#27" y="34.736"/><use xlink:href="#1" y="36.907"/></svg><svg x="6930"><use xlink:href="#a"/><use xlink:href="#b" x="2.996" y="36.882"/><use xlink:href="#6"/><use xlink:href="#7" y="2.171"/><use xlink:href="#9" y="4.342"/><use xlink:href="#10" y="6.513"/><use xlink:href="#11" y="8.684"/><use xlink:href="#12" y="13.026"/><use xlink:href="#13" y="15.197"/><use xlink:href="#14" y="17.368"/><use xlink:href="#15" y="19.539"/><use xlink:href="#16" y="21.71"/><use xlink:href="#17" y="26.052"/><use xlink:href="#24" y="28.223"/><use xlink:href="#25" y="30.394"/><use xlink:href="#26" y="32.565"/><use xlink:href="#27" y="34.736"/><use xlink:href="#18" y="36.907"/></svg><svg x="7020"><use xlink:href="#a"/><use xlink:href="#b" x="3.996" y="36.882"/><use xlink:href="#6"/><use xlink:href="#7" y="2.171"/><use xlink:href="#9" y="4.342"/><use xlink:href="#10" y="6.513"/><use xlink:href="#11" y="8.684"/><use xlink:href="#12" y="13.026"/><use xlink:href="#13" y="15.197"/><use xlink:href="#14" y="17.368"/><use xlink:href="#15" y="19.539"/><use xlink:href="#16" y="21.71"/><use xlink:href="#17" y="26.052"/><use xlink:href="#24" y="28.223"/><use xlink:href="#25" y="30.394"/><use xlink:href="#26" y="32.565"/><use xlink:href="#27" y="34.736"/><use xlink:href="#19" y="36.907"/></svg><svg x="7110"><use xlink:href="#a"/><use xlink:href="#b" x="4.996" y="36.882"/><use xlink:href="#6"/><use xlink:href="#7" y="2.171"/><use xlink:href="#9" y="4.342"/><use xlink:href="#10" y="6.513"/><use xlink:href="#11" y="8.684"/><use xlink:href="#12" y="13.026"/><use xlink:href="#13" y="15.197"/><use xlink:href="#14" y="17.368"/><use xlink:href="#15" y="19.539"/><use xlink:href="#16" y="21.71"/><use xlink:href="#17" y="26.052"/><use xlink:href="#24" y="28.223"/><use xlink:href="#25" y="30.394"/><use xlink:href="#26" y="32.565"/><use xlink:href="#27" y="34.736"/><use xlink:href="#20" y="36.907"/></svg><svg x="7200"><use xlink:href="#a"/><use xlink:href="#b" x="5.996" y="36.882"/><use xlink:href="#6"/><use xlink:href="#7" y="2.171"/><use xlink:href="#9" y="4.342"/><use xlink:href="#10" y="6.513"/><use xlink:href="#11" y="8.684"/><use xlink:href="#12" y="13.026"/><use xlink:href="#13" y="15.197"/><use xlink:href="#14" y="17.368"/><use xlink:href="#15" y="19.539"/><use xlink:href="#16" y="21.71"/><use xlink:href="#17" y="26.052"/><use xlink:href="#24" y="28.223"/><use xlink:href="#25" y="30.394"/><use xlink:href="#26" y="32.565"/><use xlink:href="#27" y="34.736"/><use xlink:href="#21" y="36.907"/></svg><svg x="7290"><use xlink:href="#a"/><use xlink:href="#b" x="6.996" y="36.882"/><use xlink:href="#6"/><use xlink:href="#7" y="2.171"/><use xlink:href="#9" y="4.342"/><use xlink:href="#10" y="6.513"/><use xlink:href="#11" y="8.684"/><use xlink:href="#12" y="13.026"/><use xlink:href="#13" y="15.197"/><use xlink:href="#14" y="17.368"/><use xlink:href="#15" y="19.539"/><use xlink:href="#16" y="21.71"/><use xlink:href="#17" y="26.052"/><use xlink:href="#24" y="28.223"/><use xlink:href="#25" y="30.394"/><use xlink:href="#26" y="32.565"/><use xlink:href="#27" y="34.736"/><use xlink:href="#22" y="36.907"/></svg><svg x="7380"><use xlink:href="#a"/><use xlink:href="#b" x="7.996" y="36.882"/><use xlink:href="#6"/><use xlink:href="#7" y="2.171"/><use xlink:href="#9" y="4.342"/><use xlink:href="#10" y="6.513"/><use xlink:href="#11" y="8.684"/><use xlink:href="#12" y="13.026"/><use xlink:href="#13" y="15.197"/><use xlink:href="#14" y="17.368"/><use xlink:href="#15" y="19.539"/><use xlink:href="#16" y="21.71"/><use xlink:href="#17" y="26.052"/><use xlink:href="#24" y="28.223"/><use xlink:href="#25" y="30.394"/><use xlink:href="#26" y="32.565"/><use xlink:href="#27" y="34.736"/><use xlink:href="#23" y="36.907"/></svg><svg x="7470"><use xlink:href="#a"/><use xlink:href="#b" x="8.996" y="36.882"/><use xlink:href="#6"/><use xlink:href="#7" y="2.171"/><use xlink:href="#9" y="4.342"/><use xlink:href="#10" y="6.513"/><use xlink:href="#11" y="8.684"/><use xlink:href="#12" y="13.026"/><use xlink:href="#13" y="15.197"/><use xlink:href="#14" y="17.368"/><use xlink:href="#15" y="19.539"/><use xlink:href="#16" y="21.71"/><use xlink:href="#17" y="26.052"/><use xlink:href="#24" y="28.223"/><use xlink:href="#25" y="30.394"/><use xlink:href="#26" y="32.565"/><use xlink:href="#27" y="34.736"/><use xlink:href="#23" y="36.907"/></svg><svg x="7560"><use xlink:href="#a"/><use xlink:href="#b" x="9.996" y="36.882"/><use xlink:href="#6"/><use xlink:href="#7" y="2.171"/><use xlink:href="#9" y="4.342"/><use xlink:href="#10" y="6.513"/><use xlink:href="#11" y="8.684"/><use xlink:href="#12" y="13.026"/><use xlink:href="#13" y="15.197"/><use xlink:href="#14" y="17.368"/><use xlink:href="#15" y="19.539"/><use xlink:href="#16" y="21.71"/><use xlink:href="#17" y="26.052"/><use xlink:href="#24" y="28.223"/><use xlink:href="#25" y="30.394"/><use xlink:href="#26" y="32.565"/><use xlink:href="#27" y="34.736"/><text y="38.577" class="f">❯</text><text x="2.004" y="38.577" class="g">./zuke</text><text x="9.018" y="38.577" class="g">t</text></svg><svg x="7650"><use xlink:href="#a"/><use xlink:href="#b" x="10.996" y="36.882"/><use xlink:href="#6"/><use xlink:href="#7" y="2.171"/><use xlink:href="#9" y="4.342"/><use xlink:href="#10" y="6.513"/><use xlink:href="#11" y="8.684"/><use xlink:href="#12" y="13.026"/><use xlink:href="#13" y="15.197"/><use xlink:href="#14" y="17.368"/><use xlink:href="#15" y="19.539"/><use xlink:href="#16" y="21.71"/><use xlink:href="#17" y="26.052"/><use xlink:href="#24" y="28.223"/><use xlink:href="#25" y="30.394"/><use xlink:href="#26" y="32.565"/><use xlink:href="#27" y="34.736"/><text y="38.577" class="f">❯</text><text x="2.004" y="38.577" class="g">./zuke</text><text x="9.018" y="38.577" class="g">te</text></svg><svg x="7740"><use xlink:href="#a"/><use xlink:href="#b" x="11.996" y="36.882"/><use xlink:href="#6"/><use xlink:href="#7" y="2.171"/><use xlink:href="#9" y="4.342"/><use xlink:href="#10" y="6.513"/><use xlink:href="#11" y="8.684"/><use xlink:href="#12" y="13.026"/><use xlink:href="#13" y="15.197"/><use xlink:href="#14" y="17.368"/><use xlink:href="#15" y="19.539"/><use xlink:href="#16" y="21.71"/><use xlink:href="#17" y="26.052"/><use xlink:href="#24" y="28.223"/><use xlink:href="#25" y="30.394"/><use xlink:href="#26" y="32.565"/><use xlink:href="#27" y="34.736"/><text y="38.577" class="f">❯</text><text x="2.004" y="38.577" class="g">./zuke</text><text x="9.018" y="38.577" class="g">tes</text></svg><svg x="7830"><use xlink:href="#a"/><use xlink:href="#b" x="12.996" y="36.882"/><use xlink:href="#6"/><use xlink:href="#7" y="2.171"/><use xlink:href="#9" y="4.342"/><use xlink:href="#10" y="6.513"/><use xlink:href="#11" y="8.684"/><use xlink:href="#12" y="13.026"/><use xlink:href="#13" y="15.197"/><use xlink:href="#14" y="17.368"/><use xlink:href="#15" y="19.539"/><use xlink:href="#16" y="21.71"/><use xlink:href="#17" y="26.052"/><use xlink:href="#24" y="28.223"/><use xlink:href="#25" y="30.394"/><use xlink:href="#26" y="32.565"/><use xlink:href="#27" y="34.736"/><use xlink:href="#28" y="36.907"/></svg><svg x="7920"><use xlink:href="#a"/><use xlink:href="#b" x="-.004" y="39.053"/><use xlink:href="#6"/><use xlink:href="#7" y="2.171"/><use xlink:href="#9" y="4.342"/><use xlink:href="#10" y="6.513"/><use xlink:href="#11" y="8.684"/><use xlink:href="#12" y="13.026"/><use xlink:href="#13" y="15.197"/><use xlink:href="#14" y="17.368"/><use xlink:href="#15" y="19.539"/><use xlink:href="#16" y="21.71"/><use xlink:href="#17" y="26.052"/><use xlink:href="#24" y="28.223"/><use xlink:href="#25" y="30.394"/><use xlink:href="#26" y="32.565"/><use xlink:href="#27" y="34.736"/><use xlink:href="#28" y="36.907"/></svg><svg x="8010"><use xlink:href="#a"/><use xlink:href="#b" x="-.004" y="41.224"/><use xlink:href="#6"/><use xlink:href="#7" y="2.171"/><use xlink:href="#9" y="4.342"/><use xlink:href="#10" y="6.513"/><use xlink:href="#11" y="8.684"/><use xlink:href="#12" y="13.026"/><use xlink:href="#13" y="15.197"/><use xlink:href="#14" y="17.368"/><use xlink:href="#15" y="19.539"/><use xlink:href="#16" y="21.71"/><use xlink:href="#17" y="26.052"/><use xlink:href="#24" y="28.223"/><use xlink:href="#25" y="30.394"/><use xlink:href="#26" y="32.565"/><use xlink:href="#27" y="34.736"/><use xlink:href="#28" y="36.907"/><use xlink:href="#29" y="39.078"/></svg><svg x="8100"><use xlink:href="#a"/><use xlink:href="#b" x="-.004" y="43.395"/><use xlink:href="#6"/><use xlink:href="#7" y="2.171"/><use xlink:href="#9" y="4.342"/><use xlink:href="#10" y="6.513"/><use xlink:href="#11" y="8.684"/><use xlink:href="#12" y="13.026"/><use xlink:href="#13" y="15.197"/><use xlink:href="#14" y="17.368"/><use xlink:href="#15" y="19.539"/><use xlink:href="#16" y="21.71"/><use xlink:href="#17" y="26.052"/><use xlink:href="#24" y="28.223"/><use xlink:href="#25" y="30.394"/><use xlink:href="#26" y="32.565"/><use xlink:href="#27" y="34.736"/><use xlink:href="#28" y="36.907"/><use xlink:href="#29" y="39.078"/><use xlink:href="#30" y="41.249"/></svg><svg x="8190"><use xlink:href="#a"/><use xlink:href="#b" x="-.004" y="45.566"/><use xlink:href="#6"/><use xlink:href="#7" y="2.171"/><use xlink:href="#9" y="4.342"/><use xlink:href="#10" y="6.513"/><use xlink:href="#11" y="8.684"/><use xlink:href="#12" y="13.026"/><use xlink:href="#13" y="15.197"/><use xlink:href="#14" y="17.368"/><use xlink:href="#15" y="19.539"/><use xlink:href="#16" y="21.71"/><use xlink:href="#17" y="26.052"/><use xlink:href="#24" y="28.223"/><use xlink:href="#25" y="30.394"/><use xlink:href="#26" y="32.565"/><use xlink:href="#27" y="34.736"/><use xlink:href="#28" y="36.907"/><use xlink:href="#29" y="39.078"/><use xlink:href="#30" y="41.249"/><use xlink:href="#31" y="43.42"/></svg><svg x="8280"><use xlink:href="#a"/><use xlink:href="#b" x="-.004" y="47.737"/><use xlink:href="#6"/><use xlink:href="#7" y="2.171"/><use xlink:href="#9" y="4.342"/><use xlink:href="#10" y="6.513"/><use xlink:href="#11" y="8.684"/><use xlink:href="#12" y="13.026"/><use xlink:href="#13" y="15.197"/><use xlink:href="#14" y="17.368"/><use xlink:href="#15" y="19.539"/><use xlink:href="#16" y="21.71"/><use xlink:href="#17" y="26.052"/><use xlink:href="#24" y="28.223"/><use xlink:href="#25" y="30.394"/><use xlink:href="#26" y="32.565"/><use xlink:href="#27" y="34.736"/><use xlink:href="#28" y="36.907"/><use xlink:href="#29" y="39.078"/><use xlink:href="#30" y="41.249"/><use xlink:href="#31" y="43.42"/><use xlink:href="#32" y="45.591"/></svg><svg x="8370"><use xlink:href="#a"/><use xlink:href="#b" x="-.004" y="49.908"/><use xlink:href="#6"/><use xlink:href="#7" y="2.171"/><use xlink:href="#9" y="4.342"/><use xlink:href="#10" y="6.513"/><use xlink:href="#11" y="8.684"/><use xlink:href="#12" y="13.026"/><use xlink:href="#13" y="15.197"/><use xlink:href="#14" y="17.368"/><use xlink:href="#15" y="19.539"/><use xlink:href="#16" y="21.71"/><use xlink:href="#17" y="26.052"/><use xlink:href="#24" y="28.223"/><use xlink:href="#25" y="30.394"/><use xlink:href="#26" y="32.565"/><use xlink:href="#27" y="34.736"/><use xlink:href="#28" y="36.907"/><use xlink:href="#29" y="39.078"/><use xlink:href="#30" y="41.249"/><use xlink:href="#31" y="43.42"/><use xlink:href="#32" y="45.591"/></svg><svg x="8460"><use xlink:href="#a"/><use xlink:href="#b" x="-.004" y="52.079"/><use xlink:href="#6"/><use xlink:href="#7" y="2.171"/><use xlink:href="#9" y="4.342"/><use xlink:href="#10" y="6.513"/><use xlink:href="#11" y="8.684"/><use xlink:href="#12" y="13.026"/><use xlink:href="#13" y="15.197"/><use xlink:href="#14" y="17.368"/><use xlink:href="#15" y="19.539"/><use xlink:href="#16" y="21.71"/><use xlink:href="#17" y="26.052"/><use xlink:href="#24" y="28.223"/><use xlink:href="#25" y="30.394"/><use xlink:href="#26" y="32.565"/><use xlink:href="#27" y="34.736"/><use xlink:href="#28" y="36.907"/><use xlink:href="#29" y="39.078"/><use xlink:href="#30" y="41.249"/><use xlink:href="#31" y="43.42"/><use xlink:href="#32" y="45.591"/><use xlink:href="#33" y="49.933"/></svg><svg x="8550"><use xlink:href="#a"/><use xlink:href="#b" x="1.996" y="52.079"/><use xlink:href="#6"/><use xlink:href="#7" y="2.171"/><use xlink:href="#9" y="4.342"/><use xlink:href="#10" y="6.513"/><use xlink:href="#11" y="8.684"/><use xlink:href="#12" y="13.026"/><use xlink:href="#13" y="15.197"/><use xlink:href="#14" y="17.368"/><use xlink:href="#15" y="19.539"/><use xlink:href="#16" y="21.71"/><use xlink:href="#17" y="26.052"/><use xlink:href="#24" y="28.223"/><use xlink:href="#25" y="30.394"/><use xlink:href="#26" y="32.565"/><use xlink:href="#27" y="34.736"/><use xlink:href="#28" y="36.907"/><use xlink:href="#29" y="39.078"/><use xlink:href="#30" y="41.249"/><use xlink:href="#31" y="43.42"/><use xlink:href="#32" y="45.591"/><use xlink:href="#33" y="49.933"/><use xlink:href="#1" y="52.104"/></svg></svg></g></g></svg></svg>